<?xml version="1.0" standalone="no"?>
<!DOCTYPE svg PUBLIC "-//W3C//DTD SVG 20010904//EN"
 "http://www.w3.org/TR/2001/REC-SVG-20010904/DTD/svg10.dtd">
<svg version="1.0" xmlns="http://www.w3.org/2000/svg"
 width="180.000000pt" height="180.000000pt" viewBox="0 0 180.000000 180.000000"
 preserveAspectRatio="xMidYMid meet">

<g transform="translate(0.000000,180.000000) scale(0.100000,-0.100000)"
fill="#000000" stroke="none">
<path d="M556 1515 c-176 -101 -329 -193 -340 -205 -19 -18 -21 -35 -24 -146
-2 -81 1 -136 8 -154 13 -32 58 -55 89 -45 45 14 51 31 51 145 l0 108 68 38
c37 20 92 53 122 72 30 20 136 82 235 139 99 57 186 112 193 121 30 39 -6 112
-56 112 -17 0 -150 -71 -346 -185z"/>
<path d="M1320 1443 c-43 -16 -62 -61 -44 -107 3 -8 43 -36 90 -63 l84 -48 0
-356 c0 -396 -1 -392 67 -405 26 -5 37 -1 57 19 l26 26 0 394 0 394 -22 20
c-13 11 -50 36 -83 55 -109 65 -148 80 -175 71z"/>
<path d="M779 1204 c-59 -18 -140 -90 -168 -148 -49 -106 -47 -261 7 -359 58
-108 176 -164 321 -154 98 6 168 36 221 93 62 67 53 134 -19 134 -11 0 -41
-19 -68 -42 -94 -81 -183 -98 -252 -48 -38 26 -71 88 -71 130 l0 30 183 0
c195 0 250 9 268 42 17 31 5 136 -19 185 -28 54 -102 118 -159 137 -58 20
-181 20 -244 0z m200 -121 c28 -21 71 -96 71 -125 0 -16 -13 -18 -150 -18
-166 0 -165 -1 -139 67 34 90 145 129 218 76z"/>
<path d="M237 603 c-9 -2 -24 -18 -33 -35 -31 -60 -22 -67 333 -273 180 -104
339 -191 354 -193 19 -3 57 14 135 58 122 70 154 99 154 138 0 36 -10 49 -45
62 -31 12 -35 10 -190 -75 l-51 -28 -305 176 c-168 98 -312 176 -320 176 -8
-1 -22 -3 -32 -6z"/>
</g>
</svg>
